<svg width="137" height="39" viewBox="0 0 137 39" fill="none" xmlns="http://www.w3.org/2000/svg">
<path d="M16 30.44C12.72 30.44 9.94667 29.84 7.68 28.64C5.44 27.44 3.73333 25.76 2.56 23.6C1.41333 21.44 0.84 18.92 0.84 16.04C0.84 13.0533 1.46667 10.4667 2.72 8.28C4 6.06666 5.82667 4.36 8.2 3.16C10.5733 1.96 13.4267 1.36 16.76 1.36C18.8133 1.36 20.6267 1.6 22.2 2.08C23.8 2.56 25.1733 3.25333 26.32 4.16L24.04 9.8C23.2133 9.24 22.4267 8.81333 21.68 8.52C20.96 8.2 20.2133 7.97333 19.44 7.84C18.6933 7.70667 17.8267 7.64 16.84 7.64C14.0667 7.64 11.9867 8.36 10.6 9.8C9.24 11.2133 8.56 13.2933 8.56 16.04C8.56 18.76 9.18667 20.8133 10.44 22.2C11.6933 23.5867 13.68 24.28 16.4 24.28C17.2267 24.28 18.12 24.2 19.08 24.04C20.0667 23.88 21.0667 23.64 22.08 23.32L20.76 25.96V19.24H14.92V14.12H26.8V28.24C25.28 28.96 23.5733 29.5067 21.68 29.88C19.8133 30.2533 17.92 30.44 16 30.44ZM90.535 38.96C88.5083 38.96 86.7217 38.7733 85.175 38.4C83.655 38.0533 82.2817 37.5067 81.055 36.76L82.295 31.72C83.015 32.1467 83.8017 32.5067 84.655 32.8C85.5083 33.0933 86.3883 33.3067 87.295 33.44C88.2283 33.6 89.1083 33.68 89.935 33.68C91.6417 33.68 92.9083 33.28 93.735 32.48C94.5617 31.7067 94.975 30.6 94.975 29.16V25.6H95.375C94.9483 26.7733 94.1083 27.72 92.855 28.44C91.6017 29.1333 90.215 29.48 88.695 29.48C86.8817 29.48 85.295 29.08 83.935 28.28C82.6017 27.4533 81.5483 26.28 80.775 24.76C80.0283 23.24 79.655 21.44 79.655 19.36C79.655 17.28 80.0283 15.48 80.775 13.96C81.5483 12.44 82.6017 11.28 83.935 10.48C85.295 9.65333 86.8817 9.24 88.695 9.24C90.2683 9.24 91.655 9.58666 92.855 10.28C94.055 10.9733 94.8683 11.8933 95.295 13.04L94.975 12.96L95.415 9.68H102.255C102.148 10.5867 102.068 11.5067 102.015 12.44C101.962 13.3733 101.935 14.2933 101.935 15.2V28.36C101.935 31.7733 100.962 34.3867 99.015 36.2C97.0683 38.04 94.2417 38.96 90.535 38.96ZM90.895 24.2C92.1217 24.2 93.095 23.7867 93.815 22.96C94.535 22.1333 94.895 20.9333 94.895 19.36C94.895 17.76 94.535 16.56 93.815 15.76C93.095 14.9333 92.1217 14.52 90.895 14.52C89.6417 14.52 88.655 14.9333 87.935 15.76C87.215 16.56 86.855 17.76 86.855 19.36C86.855 20.9333 87.215 22.1333 87.935 22.96C88.655 23.7867 89.6417 24.2 90.895 24.2Z" fill="#4285F4"/>
<path d="M41.36 30.44C39.0933 30.44 37.1333 30.0133 35.48 29.16C33.8267 28.3067 32.5467 27.0933 31.64 25.52C30.7333 23.92 30.28 22.0267 30.28 19.84C30.28 17.6267 30.7333 15.7333 31.64 14.16C32.5467 12.5867 33.8267 11.3733 35.48 10.52C37.1333 9.66666 39.0933 9.24 41.36 9.24C43.6 9.24 45.5467 9.66666 47.2 10.52C48.8533 11.3733 50.1333 12.6 51.04 14.2C51.9467 15.7733 52.4 17.6533 52.4 19.84C52.4 22 51.9467 23.88 51.04 25.48C50.1333 27.08 48.8533 28.3067 47.2 29.16C45.5467 30.0133 43.6 30.44 41.36 30.44ZM41.36 25.16C42.5333 25.16 43.4667 24.7467 44.16 23.92C44.8533 23.0667 45.2 21.7067 45.2 19.84C45.2 17.9733 44.8533 16.6267 44.16 15.8C43.4667 14.9467 42.5333 14.52 41.36 14.52C40.16 14.52 39.2133 14.9467 38.52 15.8C37.8267 16.6267 37.48 17.9733 37.48 19.84C37.48 21.7067 37.8267 23.0667 38.52 23.92C39.2133 24.7467 40.16 25.16 41.36 25.16ZM128.561 30.44C124.881 30.44 122.014 29.4933 119.961 27.6C117.934 25.7067 116.921 23.1067 116.921 19.8C116.921 17.7467 117.347 15.92 118.201 14.32C119.054 12.72 120.254 11.48 121.801 10.6C123.347 9.69333 125.161 9.24 127.241 9.24C129.294 9.24 131.001 9.69333 132.361 10.6C133.747 11.48 134.787 12.7067 135.481 14.28C136.174 15.8267 136.521 17.6267 136.521 19.68V21.2H122.881V17.84H131.281L130.601 18.4C130.601 16.88 130.307 15.76 129.721 15.04C129.161 14.2933 128.361 13.92 127.321 13.92C126.121 13.92 125.201 14.3733 124.561 15.28C123.947 16.16 123.641 17.4933 123.641 19.28V20C123.641 21.7867 124.081 23.0933 124.961 23.92C125.841 24.7467 127.107 25.16 128.761 25.16C129.827 25.16 130.827 25.04 131.761 24.8C132.721 24.56 133.627 24.1733 134.481 23.64L136.321 28.28C135.307 28.9733 134.134 29.5067 132.801 29.88C131.467 30.2533 130.054 30.44 128.561 30.44Z" fill="#EA4335"/>
<path d="M66.0475 30.44C63.7808 30.44 61.8208 30.0133 60.1675 29.16C58.5142 28.3067 57.2342 27.0933 56.3275 25.52C55.4208 23.92 54.9675 22.0267 54.9675 19.84C54.9675 17.6267 55.4208 15.7333 56.3275 14.16C57.2342 12.5867 58.5142 11.3733 60.1675 10.52C61.8208 9.66666 63.7808 9.24 66.0475 9.24C68.2875 9.24 70.2342 9.66666 71.8875 10.52C73.5408 11.3733 74.8208 12.6 75.7275 14.2C76.6342 15.7733 77.0875 17.6533 77.0875 19.84C77.0875 22 76.6342 23.88 75.7275 25.48C74.8208 27.08 73.5408 28.3067 71.8875 29.16C70.2342 30.0133 68.2875 30.44 66.0475 30.44ZM66.0475 25.16C67.2208 25.16 68.1542 24.7467 68.8475 23.92C69.5408 23.0667 69.8875 21.7067 69.8875 19.84C69.8875 17.9733 69.5408 16.6267 68.8475 15.8C68.1542 14.9467 67.2208 14.52 66.0475 14.52C64.8475 14.52 63.9008 14.9467 63.2075 15.8C62.5142 16.6267 62.1675 17.9733 62.1675 19.84C62.1675 21.7067 62.5142 23.0667 63.2075 23.92C63.9008 24.7467 64.8475 25.16 66.0475 25.16Z" fill="#FBBC03"/>
<path d="M106.317 30V0.559998H113.437V30H106.317Z" fill="#31C65B"/>
</svg>
