<svg width="155" height="30" viewBox="0 0 155 30" fill="none" xmlns="http://www.w3.org/2000/svg">
<path d="M0.275 26V1.325H6.75V26H0.275ZM11.315 26V1.325H16.075L28.57 16.83H27.555V1.325H33.54V26H28.78L16.355 10.495H17.37V26H11.315ZM38.0777 26V1.325H44.5527V26H38.0777ZM69.9286 26V6.54H62.4386V1.325H83.8936V6.54H76.4036V26H69.9286ZM86.6129 26V1.325H104.323V6.26H92.8079V10.985H103.483V15.955H92.8079V21.03H104.323V26H86.6129ZM120.16 26.385C117.477 26.385 115.155 25.86 113.195 24.81C111.258 23.76 109.753 22.2783 108.68 20.365C107.63 18.4517 107.105 16.2117 107.105 13.645C107.105 11.0783 107.63 8.85 108.68 6.96C109.753 5.04667 111.258 3.565 113.195 2.515C115.155 1.465 117.477 0.939999 120.16 0.939999C121.863 0.939999 123.415 1.17333 124.815 1.64C126.215 2.08333 127.393 2.725 128.35 3.565L126.425 8.64C125.352 7.87 124.36 7.33333 123.45 7.03C122.563 6.70333 121.548 6.54 120.405 6.54C118.305 6.54 116.683 7.15833 115.54 8.395C114.42 9.60833 113.86 11.3583 113.86 13.645C113.86 15.955 114.42 17.7283 115.54 18.965C116.683 20.1783 118.305 20.785 120.405 20.785C121.548 20.785 122.563 20.6333 123.45 20.33C124.36 20.0033 125.352 19.455 126.425 18.685L128.35 23.76C127.393 24.6 126.215 25.2533 124.815 25.72C123.415 26.1633 121.863 26.385 120.16 26.385ZM131.73 26V1.325H138.205V10.845H148.145V1.325H154.62V26H148.145V16.13H138.205V26H131.73Z" fill="#2F2F2F"/>
<path d="M47.4378 29.535V26H63.9228V29.535H47.4378Z" fill="#5571FF"/>
</svg>
