<svg width="175" height="27" viewBox="0 0 175 27" fill="none" xmlns="http://www.w3.org/2000/svg">
<path d="M11.23 26.385C7.54333 26.385 4.77833 25.475 2.935 23.655C1.09167 21.835 0.17 19.1167 0.17 15.5V1.325H6.61V15.535C6.61 17.3317 6.98333 18.6967 7.73 19.63C8.47667 20.54 9.64333 20.995 11.23 20.995C12.8167 20.995 13.9833 20.54 14.73 19.63C15.4767 18.6967 15.85 17.3317 15.85 15.535V1.325H22.22V15.5C22.22 19.1167 21.31 21.835 19.49 23.655C17.67 25.475 14.9167 26.385 11.23 26.385ZM26.2092 26V13.05C26.2092 12.2567 26.1858 11.4517 26.1392 10.635C26.0925 9.81833 26.0225 9.01333 25.9292 8.22H31.9492L32.2992 11.3H31.9142C32.4275 10.2267 33.1858 9.38667 34.1892 8.78C35.1925 8.15 36.3708 7.835 37.7242 7.835C39.0308 7.835 40.1392 8.15 41.0492 8.78C41.9825 9.38667 42.6592 10.355 43.0792 11.685H42.4842C43.0675 10.4717 43.9075 9.52667 45.0042 8.85C46.1242 8.17333 47.3725 7.835 48.7492 7.835C50.7792 7.835 52.2958 8.45333 53.2992 9.69C54.3025 10.9033 54.8042 12.805 54.8042 15.395V26H48.5392V15.605C48.5392 14.5083 48.3758 13.7383 48.0492 13.295C47.7225 12.8283 47.1975 12.595 46.4742 12.595C45.5642 12.595 44.8525 12.9217 44.3392 13.575C43.8492 14.2283 43.6042 15.1267 43.6042 16.27V26H37.3742V15.605C37.3742 14.5083 37.1992 13.7383 36.8492 13.295C36.5225 12.8283 36.0092 12.595 35.3092 12.595C34.3992 12.595 33.6875 12.9217 33.1742 13.575C32.6842 14.2283 32.4392 15.1267 32.4392 16.27V26H26.2092ZM70.1982 26.385C68.8448 26.385 67.6082 26.0583 66.4882 25.405C65.3915 24.7517 64.6682 23.8883 64.3182 22.815H64.7032V26H58.5432V0.239998H64.7732V11.23H64.3532C64.7498 10.2033 65.4848 9.38667 66.5582 8.78C67.6548 8.15 68.8682 7.835 70.1982 7.835C71.7382 7.835 73.0915 8.20833 74.2582 8.955C75.4482 9.70167 76.3698 10.775 77.0232 12.175C77.6998 13.575 78.0382 15.2317 78.0382 17.145C78.0382 19.0817 77.6998 20.7383 77.0232 22.115C76.3698 23.4917 75.4482 24.5533 74.2582 25.3C73.0915 26.0233 71.7382 26.385 70.1982 26.385ZM68.2382 21.765C69.2648 21.765 70.1048 21.4033 70.7582 20.68C71.4348 19.9567 71.7732 18.7783 71.7732 17.145C71.7732 15.5117 71.4348 14.3217 70.7582 13.575C70.1048 12.8283 69.2648 12.455 68.2382 12.455C67.1882 12.455 66.3365 12.8283 65.6832 13.575C65.0298 14.2983 64.7032 15.4767 64.7032 17.11C64.7032 18.7433 65.0298 19.9333 65.6832 20.68C66.3365 21.4033 67.1882 21.765 68.2382 21.765ZM81.0676 26V13.085C81.0676 12.2683 81.0442 11.4517 80.9976 10.635C80.9509 9.81833 80.8809 9.01333 80.7876 8.22H86.8076L87.4726 13.68H86.5276C86.7609 12.35 87.1342 11.2533 87.6476 10.39C88.1609 9.52667 88.8026 8.885 89.5726 8.465C90.3426 8.045 91.2526 7.835 92.3026 7.835C92.7926 7.835 93.1542 7.85833 93.3876 7.905C93.6442 7.92833 93.9126 7.99833 94.1926 8.115V13.575C93.6092 13.3183 93.1426 13.155 92.7926 13.085C92.4426 13.015 91.9876 12.98 91.4276 12.98C90.4709 12.98 89.6892 13.155 89.0826 13.505C88.4759 13.8317 88.0326 14.345 87.7526 15.045C87.4959 15.745 87.3676 16.6433 87.3676 17.74V26H81.0676ZM105.145 26.385C101.925 26.385 99.4165 25.5567 97.6198 23.9C95.8465 22.2433 94.9598 19.9683 94.9598 17.075C94.9598 15.2783 95.3332 13.68 96.0798 12.28C96.8265 10.88 97.8765 9.795 99.2298 9.025C100.583 8.23167 102.17 7.835 103.99 7.835C105.787 7.835 107.28 8.23167 108.47 9.025C109.683 9.795 110.593 10.8683 111.2 12.245C111.807 13.5983 112.11 15.1733 112.11 16.97V18.3H100.175V15.36H107.525L106.93 15.85C106.93 14.52 106.673 13.54 106.16 12.91C105.67 12.2567 104.97 11.93 104.06 11.93C103.01 11.93 102.205 12.3267 101.645 13.12C101.108 13.89 100.84 15.0567 100.84 16.62V17.25C100.84 18.8133 101.225 19.9567 101.995 20.68C102.765 21.4033 103.873 21.765 105.32 21.765C106.253 21.765 107.128 21.66 107.945 21.45C108.785 21.24 109.578 20.9017 110.325 20.435L111.935 24.495C111.048 25.1017 110.022 25.5683 108.855 25.895C107.688 26.2217 106.452 26.385 105.145 26.385Z" fill="#FF6565"/>
<path d="M115.426 26V1.325H121.901V20.645H132.471V26H115.426ZM135.661 26V1.325H142.136V20.645H152.706V26H135.661ZM162.545 26.385C161.005 26.385 159.652 26.0233 158.485 25.3C157.318 24.5533 156.397 23.48 155.72 22.08C155.067 20.68 154.74 19.0233 154.74 17.11C154.74 15.1733 155.067 13.5167 155.72 12.14C156.397 10.74 157.318 9.67833 158.485 8.955C159.652 8.20833 161.005 7.835 162.545 7.835C163.922 7.835 165.158 8.16167 166.255 8.815C167.375 9.46833 168.11 10.32 168.46 11.37H168.11L168.495 8.22H174.48C174.41 9.01333 174.34 9.81833 174.27 10.635C174.223 11.4517 174.2 12.2567 174.2 13.05V26H168.04L167.97 22.99H168.39C168.04 24.0167 167.305 24.845 166.185 25.475C165.088 26.0817 163.875 26.385 162.545 26.385ZM164.54 21.765C165.59 21.765 166.442 21.4033 167.095 20.68C167.748 19.9333 168.075 18.7433 168.075 17.11C168.075 15.4767 167.748 14.2983 167.095 13.575C166.442 12.8283 165.59 12.455 164.54 12.455C163.49 12.455 162.638 12.8283 161.985 13.575C161.332 14.2983 161.005 15.4767 161.005 17.11C161.005 18.7433 161.32 19.9333 161.95 20.68C162.603 21.4033 163.467 21.765 164.54 21.765Z" fill="#7C3EFF"/>
</svg>
