<svg width="49" height="49" viewBox="0 0 49 49" fill="none" xmlns="http://www.w3.org/2000/svg">
<path d="M22.9033 6.94336C23.4656 5.48044 25.5344 5.48044 26.0967 6.94336C27.0007 9.2953 29.9366 10.0819 31.8955 8.49707C33.1139 7.51129 34.9066 8.54573 34.6621 10.0938C34.2689 12.5828 36.4172 14.7311 38.9062 14.3379C40.4543 14.0934 41.4887 15.8861 40.5029 17.1045C38.9181 19.0634 39.7047 21.9993 42.0566 22.9033C43.5196 23.4656 43.5196 25.5344 42.0566 26.0967C39.7047 27.0007 38.9181 29.9366 40.5029 31.8955C41.4887 33.1139 40.4543 34.9066 38.9062 34.6621C36.4172 34.2689 34.2689 36.4172 34.6621 38.9062C34.9066 40.4543 33.1139 41.4887 31.8955 40.5029C29.9366 38.9181 27.0007 39.7047 26.0967 42.0566C25.5344 43.5196 23.4656 43.5196 22.9033 42.0566C21.9993 39.7047 19.0634 38.9181 17.1045 40.5029C15.8861 41.4887 14.0934 40.4543 14.3379 38.9062C14.7311 36.4172 12.5828 34.2689 10.0938 34.6621C8.54573 34.9066 7.51128 33.1139 8.49707 31.8955C10.0819 29.9366 9.2953 27.0007 6.94336 26.0967C5.48044 25.5344 5.48044 23.4656 6.94336 22.9033C9.2953 21.9993 10.0819 19.0634 8.49707 17.1045C7.51128 15.8861 8.54573 14.0934 10.0938 14.3379C12.5828 14.7311 14.7311 12.5828 14.3379 10.0938C14.0934 8.54573 15.8861 7.51128 17.1045 8.49707C19.0634 10.0819 21.9993 9.2953 22.9033 6.94336Z" stroke="#5956E9" stroke-width="2"/>
<circle cx="24.5" cy="24.5" r="11.5" stroke="#5956E9" stroke-width="2"/>
</svg>
